<?xml version="1.0" encoding="UTF-8"?>
<svg xmlns="http://www.w3.org/2000/svg" xmlns:xlink="http://www.w3.org/1999/xlink" width="32px" height="32px" viewBox="0 0 32 32" version="1.1">
<g id="surface1">
<path style=" stroke:none;fill-rule:nonzero;fill:rgb(60.000002%,35.686275%,50.196081%);fill-opacity:1;" d="M 12.359375 28.890625 L 9.054688 27.96875 L 5.929688 24.417969 L 9.839844 24.3125 Z M 12.359375 28.890625 "/>
<path style=" stroke:none;fill-rule:nonzero;fill:rgb(60.000002%,35.686275%,50.196081%);fill-opacity:1;" d="M 4.71875 26.550781 L 2.859375 26.03125 L 1.101562 24.035156 L 3.238281 23.683594 Z M 4.71875 26.550781 "/>
<path style=" stroke:none;fill-rule:nonzero;fill:rgb(48.235294%,24.705882%,39.607844%);fill-opacity:1;" d="M 0 23.785156 L 1.902344 24.167969 L 2.175781 23.6875 L 2.175781 7.285156 L 1.902344 6.964844 L 0 8.042969 Z M 0 23.785156 "/>
<path style=" stroke:none;fill-rule:nonzero;fill:rgb(75.686276%,48.235294%,61.56863%);fill-opacity:1;" d="M 9.242188 8.679688 L 1.902344 6.964844 L 1.902344 24.167969 L 3 24.066406 L 4.71875 26.550781 L 6.042969 23.785156 L 9.242188 23.488281 Z M 9.242188 8.679688 "/>
<path style=" stroke:none;fill-rule:nonzero;fill:rgb(48.235294%,24.705882%,39.607844%);fill-opacity:1;" d="M 4.246094 24.671875 L 7.503906 25.324219 L 7.71875 24.820312 L 7.71875 4.660156 L 7.503906 4.207031 L 4.246094 5.851562 Z M 4.246094 24.671875 "/>
<path style=" stroke:none;fill-rule:nonzero;fill:rgb(75.686276%,48.235294%,61.56863%);fill-opacity:1;" d="M 26.089844 10.148438 L 7.503906 4.207031 L 7.503906 25.324219 L 9.65625 25.046875 L 12.359375 28.890625 L 14.5 24.425781 L 26.089844 22.941406 Z M 26.089844 10.148438 "/>
<path style=" stroke:none;fill-rule:nonzero;fill:rgb(60.000002%,35.686275%,50.196081%);fill-opacity:1;" d="M 22.730469 31.9375 L 18.035156 30.625 L 13.59375 25.582031 L 19.347656 25.523438 Z M 22.730469 31.9375 "/>
<path style=" stroke:none;fill-rule:nonzero;fill:rgb(48.235294%,24.705882%,39.607844%);fill-opacity:1;" d="M 11.199219 26.015625 L 15.988281 26.941406 L 16.363281 26.621094 L 16.363281 0.511719 L 15.988281 0 L 11.199219 2.386719 Z M 11.199219 26.015625 "/>
<path style=" stroke:none;fill-rule:nonzero;fill:rgb(75.686276%,48.235294%,61.56863%);fill-opacity:1;" d="M 32 7.972656 L 15.992188 0 L 15.992188 26.941406 L 18.816406 26.375 L 22.730469 31.9375 L 26.089844 24.925781 L 32 23.746094 Z M 32 7.972656 "/>
</g>
</svg>
